<svg width="28" height="20" viewBox="0 0 28 20" fill="none" xmlns="http://www.w3.org/2000/svg">
<path fill-rule="evenodd" clip-rule="evenodd" d="M25.6996 10C25.0504 8.94074 23.8171 7.14946 22.0623 5.52491C19.9526 3.57182 17.2473 2 14 2C10.7527 2 8.04743 3.57182 5.93774 5.52491C4.18292 7.14946 2.94965 8.94074 2.30039 10C2.94965 11.0593 4.18292 12.8505 5.93774 14.4751C8.04743 16.4282 10.7527 18 14 18C17.2473 18 19.9526 16.4282 22.0623 14.4751C23.8171 12.8505 25.0504 11.0593 25.6996 10ZM27.7625 10.4387C27.9173 10.1647 27.9173 9.83531 27.7625 9.56128C26.6724 7.63229 21.8627 0 14 0C6.13735 0 1.32759 7.63229 0.237538 9.56128C0.0826858 9.83531 0.0826857 10.1647 0.237538 10.4387C1.32759 12.3677 6.13735 20 14 20C21.8627 20 26.6724 12.3677 27.7625 10.4387Z" />
<path fill-rule="evenodd" clip-rule="evenodd" d="M14 12C15.1046 12 16 11.1046 16 10C16 8.89543 15.1046 8 14 8C12.8954 8 12 8.89543 12 10C12 11.1046 12.8954 12 14 12ZM14 14C16.2092 14 18 12.2091 18 10C18 7.79086 16.2092 6 14 6C11.7909 6 10 7.79086 10 10C10 12.2091 11.7909 14 14 14Z" />
</svg>
